<svg xmlns="http://www.w3.org/2000/svg" viewBox="0 0 27.3 37.1"><defs><style>.cls-1{fill:#fff}</style></defs><g id="Слой_2" data-name="Слой 2"><g id="Слой_1-2" data-name="Слой 1"><path class="cls-1" d="M19.4 14.5a1.37 1.37 0 00-1.4 1.4v15.2a1.4 1.4 0 002.8 0V15.9a1.43 1.43 0 00-1.4-1.4zm-3.7 5.3a1.37 1.37 0 00-1.4 1.4v9.9a1.4 1.4 0 102.8 0v-9.9a1.43 1.43 0 00-1.4-1.4zM11.9 25a1.37 1.37 0 00-1.4 1.4v4.7a1.4 1.4 0 002.8 0v-4.7a1.43 1.43 0 00-1.4-1.4zM7.6 8.7A1.37 1.37 0 009 7.3a4.5 4.5 0 019 0 1.4 1.4 0 002.8 0 7.3 7.3 0 00-14.6 0 1.51 1.51 0 001.4 1.4z"/><path class="cls-1" d="M26.1 11.2a1.35 1.35 0 00-1.4-1.3H2.6a1.42 1.42 0 00-1.4 1.3L0 35.7a1.16 1.16 0 00.4 1 1.28 1.28 0 001 .4h24.5a1.78 1.78 0 001-.4 1.28 1.28 0 00.4-1zM3.9 12.7h.6l1 21.7H2.9zm4.4 21.7l-1-21.7h16.1l1 21.7z"/></g></g></svg>