<svg xmlns="http://www.w3.org/2000/svg" viewBox="0 0 25.04 16.1"><defs><style/></defs><path d="M18.41 2.3h-6.8a3.49 3.49 0 00-2.4 1l-4.8 4.8a3.42 3.42 0 002.4 5.8h6.9a3.49 3.49 0 002.4-1l4.8-4.8a3.46 3.46 0 00-2.5-5.8z" style="isolation:isolate" fill="#e83a4a"/><path id="cool_shape" d="M20.11.5h-8.9a4.39 4.39 0 00-3.1 1.3l-6.3 6.3a4.38 4.38 0 003.1 7.5h8.9a4.39 4.39 0 003.1-1.3l6.3-6.3a4.37 4.37 0 00-3.1-7.5z" style="animation:dash 5s infinite linear" stroke-dasharray="1000" stroke-dashoffset="1000" fill="none" stroke="#e83a4a" stroke-miterlimit="10"/></svg>