<svg width="22" height="22" fill="none" xmlns="http://www.w3.org/2000/svg"><g clip-path="url(#clip0)"><path d="M13.796 4.583a4.583 4.583 0 013.62 3.621M13.796.917a8.25 8.25 0 017.287 7.278m-.917 7.315v2.75a1.832 1.832 0 01-1.998 1.833 18.14 18.14 0 01-7.91-2.814 17.875 17.875 0 01-5.5-5.5 18.141 18.141 0 01-2.815-7.947 1.833 1.833 0 011.824-1.999h2.75A1.833 1.833 0 018.35 3.41c.117.88.332 1.744.642 2.576A1.833 1.833 0 018.58 7.92L7.415 9.084a14.667 14.667 0 005.5 5.5l1.165-1.164a1.832 1.832 0 011.934-.412c.832.31 1.696.525 2.576.641a1.833 1.833 0 011.576 1.861z" stroke="#E83A4A" stroke-width="2" stroke-linecap="round" stroke-linejoin="round"/></g><defs><clipPath id="clip0"><path fill="#fff" d="M0 0h22v22H0z"/></clipPath></defs></svg>