<svg width="24" height="17" fill="none" xmlns="http://www.w3.org/2000/svg"><path d="M20.594.85H3.406A2.559 2.559 0 00.85 3.406V13.72a2.559 2.559 0 002.556 2.556h17.188a2.559 2.559 0 002.556-2.556V3.406A2.559 2.559 0 0020.594.85zM3.406 2.525h17.188c.485 0 .881.395.881.881v1.225H2.525V3.406c0-.486.395-.881.881-.881zM20.594 14.6H3.406a.882.882 0 01-.881-.881V6.306h18.95v7.413a.882.882 0 01-.881.881z" fill="#E83B4B" stroke="#E83A4A" stroke-width=".3"/><path d="M5.813 12.688h-.688A.688.688 0 014.437 12v-.688c0-.38.308-.687.688-.687h.688c.38 0 .687.308.687.688V12c0 .38-.308.688-.688.688z" fill="#E83B4B"/></svg>