<svg xmlns="http://www.w3.org/2000/svg" viewBox="0 0 54.2 54.2"><g data-name="Слой 2"><g data-name="Слой 1"><circle cx="27.1" cy="27.1" r="27.1" fill="#8f9195"/><path d="M31.3 25.2V14.9c2.6 1 4.4 2.7 4.4 4.7a1.5 1.5 0 003 0c0-3.6-3-6.6-7.4-7.9V4.6a1.5 1.5 0 10-3 0v6.6h-3.1V4.6a1.5 1.5 0 00-3 0v6.9c-3.4.7-6.8 2.5-6.8 8.1s3.4 7.4 6.8 8.1V38c-2.3-1-3.8-2.6-3.8-4.5a1.5 1.5 0 00-3 0c0 3.5 2.7 6.4 6.8 7.7V49a1.5 1.5 0 003 0v-7.1a10.87 10.87 0 001.8.1h1.3v7a1.5 1.5 0 003 0v-7.2c4-.4 7.4-2 7.4-8.3s-3.4-7.8-7.4-8.3zm-4.2-11a6.15 6.15 0 011.3.1v10.8h-3.1V14.3a9.72 9.72 0 011.8-.1zm-8.7 5.4c0-2.8 1-4.3 3.8-5v10c-2.7-.6-3.8-2.2-3.8-5zM27.1 39a10.87 10.87 0 01-1.8-.1V28.1h3.1V39a5.63 5.63 0 00-1.3 0zm4.2-.2V28.2c3.1.3 4.4 1.5 4.4 5.3s-1.3 5-4.4 5.3z" fill="#fff"/></g></g></svg>