<svg xmlns="http://www.w3.org/2000/svg" viewBox="0 0 54.2 54.2"><defs><style>.cls-2{fill:#fff}</style></defs><g id="Слой_2" data-name="Слой 2"><g id="Слой_1-2" data-name="Слой 1"><circle cx="27.1" cy="27.1" r="27.1" fill="#8f9195"/><path class="cls-2" d="M43.7 44.5l-6.1-14.2a1.79 1.79 0 00.7-.5 3.07 3.07 0 00.5-3.9.45.45 0 010-.5.52.52 0 01.4-.2h.1a3.21 3.21 0 003.1-2.4 3.17 3.17 0 00-1.6-3.7.54.54 0 01-.3-.4.37.37 0 01.3-.4 3.37 3.37 0 001.6-3.7 3.21 3.21 0 00-3.1-2.4h-.1a.7.7 0 01-.4-.2.45.45 0 010-.5 3.19 3.19 0 00-.5-4 3.19 3.19 0 00-4-.5.45.45 0 01-.5 0 .52.52 0 01-.2-.4 3.22 3.22 0 00-2.4-3.2A3.17 3.17 0 0027.5 5a.54.54 0 01-.4.3.37.37 0 01-.4-.3A3.37 3.37 0 0023 3.4a3.22 3.22 0 00-2.4 3.2.43.43 0 01-.2.4.45.45 0 01-.5 0 3.19 3.19 0 00-4 .5 3.19 3.19 0 00-.5 4 .45.45 0 010 .5.52.52 0 01-.4.2h-.1a3.21 3.21 0 00-3.1 2.4 3.17 3.17 0 001.6 3.7.54.54 0 01.3.4.37.37 0 01-.3.4 3.37 3.37 0 00-1.6 3.7 3.21 3.21 0 003.1 2.4h.1a.31.31 0 01.4.2.45.45 0 010 .5 3.19 3.19 0 00.5 4c.2.2.4.3.6.5l-6 14.3a1.4 1.4 0 00.2 1.4 1.3 1.3 0 001.3.5l6.6-1.3 3.6 5.6a1.38 1.38 0 001.1.6h.1a1.33 1.33 0 001.1-.8l2.3-5.5 2.5 5.5a1.17 1.17 0 001.1.8h.1a1.15 1.15 0 001.1-.6l3.6-5.6 6.6 1.3a1.3 1.3 0 001.3-.5c.7-.6.8-1.1.6-1.6zM14.9 22.3c-.3 0-.4-.2-.5-.4a.73.73 0 01.2-.6 3.42 3.42 0 001.7-2.8 3 3 0 00-1.7-2.8c-.3-.2-.3-.4-.2-.6s.2-.3.5-.4a3.36 3.36 0 002.9-1.6 3.25 3.25 0 000-3.3c-.2-.3-.1-.5.1-.6a.56.56 0 01.6-.1 3.25 3.25 0 003.3 0 3.36 3.36 0 001.6-2.9c0-.3.2-.4.4-.5a.73.73 0 01.6.2 3.42 3.42 0 002.8 1.7A3 3 0 0030 5.9c.2-.3.4-.3.6-.2a.46.46 0 01.4.5 3.36 3.36 0 001.6 2.9 3.25 3.25 0 003.3 0c.3-.2.5-.1.6.1a.61.61 0 01.1.6 3.25 3.25 0 000 3.3 3.36 3.36 0 002.9 1.6c.3 0 .4.2.5.4a.73.73 0 01-.2.6 3.42 3.42 0 00-1.7 2.8 3 3 0 001.7 2.8c.3.2.3.4.2.6a.46.46 0 01-.5.4 3.36 3.36 0 00-2.9 1.6 3.25 3.25 0 000 3.3c.2.3.1.5-.1.6a.56.56 0 01-.6.1 3.25 3.25 0 00-3.3 0 3.36 3.36 0 00-1.6 2.9c0 .3-.2.4-.4.5a.73.73 0 01-.6-.2 3.42 3.42 0 00-2.8-1.7 3 3 0 00-2.8 1.7c-.2.3-.4.3-.6.2a.46.46 0 01-.4-.5 3.36 3.36 0 00-1.6-2.9 3.25 3.25 0 00-3.3 0 .43.43 0 01-.6-.1.56.56 0 01-.1-.6 3.25 3.25 0 000-3.3 3.36 3.36 0 00-2.9-1.6zM23.2 47l-2.7-4.2a1.34 1.34 0 00-1.4-.6l-4.9 1 5.4-12.7c.1-.1.3-.1.4-.2a.45.45 0 01.5 0 .52.52 0 01.2.4 3.49 3.49 0 001 2.4l3.9 8.5zm12-4.8a1.28 1.28 0 00-1.4.6L31 47.1l-6.1-13.3a3.53 3.53 0 001.7-1.5.54.54 0 01.4-.3.37.37 0 01.4.3 3.09 3.09 0 002.8 1.7 2.77 2.77 0 00.9-.1 3.22 3.22 0 002.4-3.2.43.43 0 01.2-.4.45.45 0 01.5 0c.1.1.2.1.4.2v.2L40 43.3z"/><path class="cls-2" d="M26.9 26.5a7.9 7.9 0 10-7.9-7.9 7.85 7.85 0 007.9 7.9zm0-13.1a5.2 5.2 0 11-5.2 5.2 5.23 5.23 0 015.2-5.2z"/></g></g></svg>