<svg xmlns="http://www.w3.org/2000/svg" viewBox="0 0 54.2 54.2"><g data-name="Слой 2"><g data-name="Слой 1"><circle cx="27.1" cy="27.1" r="27.1" fill="#8f9195"/><path d="M49.4 42.5c-2.4-4-8.8-7-17-7.9.8-.4 1.6-.9 2.4-1.4a10.31 10.31 0 0010.1-10.3 17.8 17.8 0 00-35.6 0 1.4 1.4 0 002.8 0 15 15 0 0130 0 7.68 7.68 0 01-4.1 6.7 12.5 12.5 0 001.9-6.7 12.8 12.8 0 10-18.1 11.7c-8.2.9-14.6 3.9-17 7.9.6.8 1.2 1.6 1.9 2.4 1.3-4 9.1-7.9 20.4-7.9s19.2 3.9 20.4 7.9c.7-.8 1.3-1.6 1.9-2.4zM27.1 33a10.21 10.21 0 116.7-2.6 7.12 7.12 0 01-4.1-1.7 3 3 0 00.2-1 2.9 2.9 0 10-2.9 2.9 1.27 1.27 0 00.6-.1 8.8 8.8 0 002.9 1.8 9.37 9.37 0 01-3.4.7z" fill="#fff"/></g></g></svg>