<svg xmlns="http://www.w3.org/2000/svg" viewBox="0 0 54.2 54.2"><defs><style>.cls-2{fill:#8f9195}.cls-3{fill:#fff}</style></defs><g id="Слой_2" data-name="Слой 2"><g id="Слой_1-2" data-name="Слой 1"><path d="M4.1 41.5a26.31 26.31 0 01-2.9-6.1 6.75 6.75 0 00-.2 1.4 5.18 5.18 0 003.1 4.7z" fill="none"/><path class="cls-2" d="M17.9 20.1a1.4 1.4 0 110 2.8H.3A27.28 27.28 0 000 27a29.86 29.86 0 00.4 4.3A7.87 7.87 0 0114 35.2h14.6a7.93 7.93 0 0115.6 0h.9v-9.3l-5.8-3.1H22.8a1.56 1.56 0 01-1.3-.8l-3.2-6.1v-.1c0-.1-.1-.2-.1-.3s-.1-.2-.1-.3v-.3a.37.37 0 01.1-.3.35.35 0 01.1-.2.35.35 0 01.1-.2l.2-.2a.1.1 0 00.1-.1h.1c.1 0 .2-.1.3-.1s.2-.1.3-.1h14.3l-.7-1.2H4a26.56 26.56 0 00-3.2 7.3h17.1zm5.6 4.7h4.6a1.4 1.4 0 010 2.8h-4.6a1.37 1.37 0 01-1.4-1.4 1.31 1.31 0 011.4-1.4z"/><path class="cls-2" d="M21.9 16.9l1.7 3.2H37l-1.8-3.2H21.9zM6.3 36.8a.1.1 0 00-.2 0c-.1.1.2.1.2 0z"/><path class="cls-2" d="M27.1 0a26.87 26.87 0 00-21 10h27.8a1.39 1.39 0 011.2.7l5.2 9.6 6.8 3.6a1.34 1.34 0 01.8 1.3v11.6a1.37 1.37 0 01-1.4 1.4h-2.3a7.93 7.93 0 01-15.6 0H14a8 8 0 01-7.5 6.5A27.1 27.1 0 1027.1 0z"/><path class="cls-2" d="M36.5 36.8a.1.1 0 00-.1-.1l-.1.1c-.1.1.2.1.2 0z"/><path class="cls-2" d="M36.4 41.9a5.1 5.1 0 10-5.1-5.1 5 5 0 005.1 5.1zm0-8.1a3 3 0 010 6 3 3 0 110-6zM6.2 41.9a5.1 5.1 0 100-10.2 5.16 5.16 0 00-4.9 3.7 26.31 26.31 0 002.9 6.1 5.92 5.92 0 002 .4zm0-8.1a3 3 0 010 6 3 3 0 010-6z"/><path class="cls-3" d="M6.2 39.7a3 3 0 000-6 3 3 0 000 6zm0-3a.1.1 0 01.1.1c0 .1-.2.1-.2 0s0-.1.1-.1zm30.2 3a3 3 0 000-6 3 3 0 100 6zm0-3a.1.1 0 01.1.1c0 .1-.2.1-.2 0s0-.1.1-.1z"/><path class="cls-3" d="M14 38.2h14.6a7.93 7.93 0 0015.6 0h2.3a1.37 1.37 0 001.4-1.4V25.2a1.56 1.56 0 00-.8-1.3l-6.8-3.6-5.2-9.6a1.21 1.21 0 00-1.2-.7H6.1c-.7.9-1.4 1.9-2 2.8h29l.7 1.2H19.5a.37.37 0 00-.3.1.37.37 0 00-.3.1h-.1a.1.1 0 00-.1.1c-.1.1-.2.1-.2.2s-.1.1-.1.2a.35.35 0 01-.1.2.37.37 0 01-.1.3v.3a.37.37 0 00.1.3.37.37 0 00.1.3v.1l3.2 6.1a1.34 1.34 0 001.3.8h16.5l5.8 3.1v9.3h-.9a7.93 7.93 0 00-15.6 0H14.1A7.94 7.94 0 006.3 29a7.71 7.71 0 00-5.8 2.6 25.85 25.85 0 00.9 4 5.16 5.16 0 014.9-3.7 5.1 5.1 0 010 10.2 6.47 6.47 0 01-2-.4 24.28 24.28 0 002.4 3.2 8.5 8.5 0 007.3-6.7zm9.6-18.1l-1.7-3.2h13.4l1.8 3.2zm12.8 11.6a5.1 5.1 0 11-5.1 5.1 5 5 0 015.1-5.1z"/><path class="cls-3" d="M19.3 21.6a1.37 1.37 0 00-1.4-1.4H.9c-.2.9-.4 1.9-.6 2.8h17.6a1.43 1.43 0 001.4-1.4zm4.2 6h4.6a1.4 1.4 0 000-2.8h-4.6a1.37 1.37 0 00-1.4 1.4 1.31 1.31 0 001.4 1.4z"/></g></g></svg>