<svg xmlns="http://www.w3.org/2000/svg" viewBox="0 0 37.8 37.8"><path d="M18.9 0a18.9 18.9 0 1018.9 18.9A18.95 18.95 0 0018.9 0zm0 35A16.1 16.1 0 1135 18.9 16.09 16.09 0 0118.9 35z"/><path d="M29.8 10H19.3V8a1.37 1.37 0 00-1.4-1.4H11A1.37 1.37 0 009.6 8v2H8.1a1.37 1.37 0 00-1.4 1.4V27a1.37 1.37 0 001.4 1.4h21.8a1.37 1.37 0 001.4-1.4V11.4a1.52 1.52 0 00-1.5-1.4zm-17.4-.5h4.1v.5h-4.1zm16 16.1H9.5V12.8h18.9z"/><path d="M14.1 19.2a4.8 4.8 0 004.8 4.8 4.87 4.87 0 004.8-4.8 4.8 4.8 0 00-4.8-4.8 4.87 4.87 0 00-4.8 4.8zm4.8-2a2 2 0 11-2 2 2 2 0 012-2zm5.3-1.1h2.4a1.4 1.4 0 000-2.8h-2.4a1.4 1.4 0 100 2.8z"/></svg>