<svg xmlns="http://www.w3.org/2000/svg" viewBox="0 0 37.8 37.8"><path d="M18.9 0a18.9 18.9 0 1018.9 18.9A18.95 18.95 0 0018.9 0zm0 35A16.1 16.1 0 1135 18.9 16.09 16.09 0 0118.9 35z"/><path d="M14.8 14h14.4a1.4 1.4 0 100-2.8H14.8a1.4 1.4 0 000 2.8zm14.4 3.5H14.8a1.4 1.4 0 100 2.8h14.4a1.37 1.37 0 001.4-1.4 1.43 1.43 0 00-1.4-1.4zm0 6.4H14.8a1.4 1.4 0 000 2.8h14.4a1.37 1.37 0 001.4-1.4 1.43 1.43 0 00-1.4-1.4zM10.7 11.1H9.3a1.4 1.4 0 000 2.8h1.4a1.4 1.4 0 000-2.8zm0 6.4H9.3a1.4 1.4 0 100 2.8h1.4a1.4 1.4 0 100-2.8zm0 6.4H9.3a1.4 1.4 0 100 2.8h1.4a1.4 1.4 0 000-2.8z"/></svg>