<svg xmlns="http://www.w3.org/2000/svg" viewBox="0 0 57.67 57.67"><g data-name="Слой 2"><path d="M19.22 28.83a9.62 9.62 0 119.61 9.62 9.62 9.62 0 01-9.61-9.62m-5.19 0A14.81 14.81 0 1028.83 14 14.81 14.81 0 0014 28.83m26.77-15.39A3.46 3.46 0 1044.23 10a3.46 3.46 0 00-3.46 3.46M17.19 52.31a15.83 15.83 0 01-5.36-1 9 9 0 01-3.32-2.15 8.86 8.86 0 01-2.15-3.32 15.58 15.58 0 01-1-5.35c-.14-3-.17-4-.17-11.66s0-8.61.17-11.65a15.89 15.89 0 011-5.35 9 9 0 012.15-3.32 9 9 0 013.32-2.16 16.17 16.17 0 015.36-1c3-.14 3.95-.17 11.64-.17s8.62 0 11.66.17a16.15 16.15 0 015.35 1 9 9 0 013.32 2.16 9 9 0 012.16 3.32 16.09 16.09 0 011 5.35c.14 3 .16 3.95.16 11.65s0 8.62-.16 11.66a16.09 16.09 0 01-1 5.35 9.51 9.51 0 01-5.48 5.47 15.76 15.76 0 01-5.35 1c-3 .13-4 .16-11.66.16s-8.61 0-11.64-.16M17 .17a21.21 21.21 0 00-7 1.34 14.18 14.18 0 00-5.16 3.33A14 14 0 001.51 10a21.21 21.21 0 00-1.34 7C0 20 0 21 0 28.83s0 8.82.17 11.89a21.21 21.21 0 001.34 7 14.18 14.18 0 003.33 5.11A14.18 14.18 0 0010 56.16a21.24 21.24 0 007 1.33c3.07.14 4.05.18 11.88.18s8.82 0 11.89-.18a21.24 21.24 0 007-1.33 14.78 14.78 0 008.44-8.44 21 21 0 001.33-7c.14-3.07.18-4 .18-11.89s0-8.81-.18-11.88a21.24 21.24 0 00-1.33-7 14.18 14.18 0 00-3.33-5.11 14.18 14.18 0 00-5.11-3.33 21.21 21.21 0 00-7-1.34C37.65 0 36.67 0 28.84 0S20 0 17 .17" fill="#e6e7e8" data-name="—ÎÓÈ_1"/></g></svg>