<svg xmlns="http://www.w3.org/2000/svg" viewBox="0 0 62.6 45.96"><g data-name="Слой 2"><path d="M57 27H44.6a4.59 4.59 0 0 0-4.6-4.62h-7.7V19H40a5.58 5.58 0 0 0 5.58-5.58V5.58A5.58 5.58 0 0 0 40 0H22.58A5.58 5.58 0 0 0 17 5.58v7.84A5.58 5.58 0 0 0 22.58 19h7.72v3.38h-7.72A4.59 4.59 0 0 0 18 27H5.58A5.58 5.58 0 0 0 0 32.54v7.84A5.59 5.59 0 0 0 5.58 46H23a5.59 5.59 0 0 0 5.58-5.58v-7.88A5.58 5.58 0 0 0 23 27h-3a2.59 2.59 0 0 1 2.58-2.58H40A2.59 2.59 0 0 1 42.6 27h-3a5.58 5.58 0 0 0-5.6 5.54v7.84A5.59 5.59 0 0 0 39.58 46H57a5.59 5.59 0 0 0 5.58-5.58v-7.88A5.58 5.58 0 0 0 57 27zM21 13.42V5.58A1.58 1.58 0 0 1 22.58 4H40a1.58 1.58 0 0 1 1.6 1.58v7.84A1.58 1.58 0 0 1 40 15H22.58A1.58 1.58 0 0 1 21 13.42zM23 31a1.58 1.58 0 0 1 1.58 1.58v7.84A1.58 1.58 0 0 1 23 42H5.58A1.58 1.58 0 0 1 4 40.38v-7.84A1.58 1.58 0 0 1 5.58 31zm35.6 9.38A1.58 1.58 0 0 1 57 42H39.58A1.58 1.58 0 0 1 38 40.38v-7.84A1.58 1.58 0 0 1 39.58 31H57a1.58 1.58 0 0 1 1.58 1.58z" fill="#e83a4a" data-name="Слой 1"/></g></svg>