<svg xmlns="http://www.w3.org/2000/svg" viewBox="0 0 154.86 142.49"><defs><style>.curcur{fill:#fff}</style></defs><g id="Слой_2" data-name="Слой 2"><path class="curcur" d="M154.44 54.71a8.55 8.55 0 00-1.68-8.28 8.89 8.89 0 00-6.77-3h-45.85a19.26 19.26 0 014.52-7.17L99 30.63a27.08 27.08 0 00-7.23 12.83H76.31a20.72 20.72 0 00-19.76 14.36l-13 40.06a8.55 8.55 0 001.68 8.28 8.9 8.9 0 006.77 3h43a19.32 19.32 0 01-30.42 15.66 4 4 0 00-5.11.37l-.12.12a3.94 3.94 0 00.53 6A27.33 27.33 0 00103 109.13h18.7a20.74 20.74 0 009.6-2.35 19.38 19.38 0 01-1.42 25.75 19.74 19.74 0 01-3.29 2.64 3.88 3.88 0 00-1.41 4.78l.07.15a3.92 3.92 0 005.72 1.77 27.4 27.4 0 006.58-40.09 20.71 20.71 0 003.91-7zm-32.75 50.42h-69.8a4.71 4.71 0 01-3.27-1.22 4.58 4.58 0 01-1.25-4.8l13-40a16.72 16.72 0 0116-11.6h14.75C91 48.29 91 49.12 91 50a27.35 27.35 0 0043.13 22.31 3.94 3.94 0 00.53-6l-.12-.12a4 4 0 00-5.11-.37A19.33 19.33 0 0199 50a18.74 18.74 0 01.18-2.5h46.93a4.71 4.71 0 013.27 1.22 4.58 4.58 0 011.25 4.8l-13 40.05a16.77 16.77 0 01-15.94 11.56z"/><rect class="curcur" y="54.46" width="47.33" height="4" rx="2" ry="2"/><rect class="curcur" x="10" y="69.16" width="30.33" height="4" rx="2" ry="2"/><rect class="curcur" x="21" y="83.87" width="14" height="4" rx="2" ry="2"/><ellipse class="curcur" cx="118.5" cy="16.73" rx="16.77" ry="16.68" transform="rotate(-45 118.498 16.726)"/></g></svg>