<svg xmlns="http://www.w3.org/2000/svg" viewBox="0 0 100 100" preserveAspectRatio="xMidYMid" class="lds-colorbar"><defs><clipPath id="a"><path d="M81.3 58.7H18.7c-4.8 0-8.7-3.9-8.7-8.7 0-4.8 3.9-8.7 8.7-8.7h62.7c4.8 0 8.7 3.9 8.7 8.7-.1 4.8-4 8.7-8.8 8.7z"/></clipPath></defs><path fill="none" stroke-width="2.793" d="M82 63H18c-7.2 0-13-5.8-13-13v0c0-7.2 5.8-13 13-13h64c7.2 0 13 5.8 13 13v0c0 7.2-5.8 13-13 13z" stroke="#e8394a"/><g clip-path="url(#a)"><g transform="translate(76.402)"><path fill="#353a49" d="M-100 0h25v100h-25z"/><path fill="#686c7a" d="M-75 0h25v100h-25z"/><path fill="#e8394a" d="M-50 0h25v100h-25z"/><path fill="#fff" d="M-25 0H0v100h-25z"/><path fill="#353a49" d="M0 0h25v100H0z"/><path fill="#686c7a" d="M25 0h25v100H25z"/><path fill="#e8394a" d="M50 0h25v100H50z"/><path fill="#fff" d="M75 0h25v100H75z"/><animateTransform attributeName="transform" type="translate" calcMode="linear" values="0;100" keyTimes="0;1" dur="1s" begin="0s" repeatCount="indefinite"/></g></g></svg>