<svg xmlns="http://www.w3.org/2000/svg" viewBox="0 0 517.76 539.71"><defs><style>.cls-1{fill:#f7c18a}.cls-4{fill:#e73949}.cls-5{fill:#473523}.cls-6{fill:#c1272d}.cls-8{fill:#7f858a}.cls-11{fill:#ba3142}.cls-12{fill:#af8256}</style></defs><g id="Слой_2" data-name="Слой 2"><g id="Layer_1" data-name="Layer 1"><path class="cls-1" d="M256.56 277.49c14.22 2.4 25.72 3.84 27.06-3.5s-9.91-10.13-24.06-12.92z"/><path d="M137.3 220.66l19.11 41.71c34.32 9.49 68.6 14.28 101.53 17.13 3.76-8.05 4.89-9.63 8.64-16.9Q202.59 252 137.3 220.66z" fill="#8e2d3d"/><path class="cls-1" d="M184.27 54.79l-.17 17.95 6.12 16.14-10.63 6.16.52 18.55-27.67-.25-.4 42.75-27.68-.25.94-101.61 58.97.56z"/><path d="M127.66 87.19c.06-7.15 6.4-12.91 14.22-13v7.97h10.44l.12-12.5 30.1-12.36 8.07-4.09V30.26l-69.3 6.66-8.19-.07-.7 76.69 17.39.16 2.55-16.76a12.58 12.58 0 0 1-4.7-9.75z" fill="#573a1e"/><path class="cls-4" d="M171.59 336.38H102.4s-12.27-171 0-188.38 56-12 65.91.34 3.28 188.04 3.28 188.04z"/><path class="cls-5" transform="rotate(-31.32 322.692 347.09)" d="M317.84 200.99h9.66v292.16h-9.66z"/><path class="cls-5" transform="rotate(-38.93 357.55 479.075)" d="M318.64 474.24h77.83v9.66h-77.83z"/><path class="cls-5" transform="rotate(-1.31 328.388 430.23)" d="M322.6 353.63h9.66v150.71h-9.66z"/><path class="cls-5" transform="rotate(-31.43 448.141 440.041)" d="M384.44 435.17h127.27v9.66H384.44z"/><path class="cls-6" d="M179.49 178.21v.01l-.01-.01h.01z"/><path d="M221.25 496.17c-8.2 4.18-9.8 5.4-17.18 9.52-12.34-53.94-36.48-108.14-72.41-162.12q17.88-6.1 37-12.23c31.34 54.04 44.78 111.09 52.59 164.83z" fill="#434e67"/><path class="cls-8" d="M288.45 519.27l-78.03 17.77-8.32-36.51 19.15-4.36 67.2 23.1z"/><path d="M42.19 466c-9.5-3-19.52-1-29.77-4.11.32 0 14.15-8.31 33.24-20.28 18.44-12 42.13-27.58 47-42 9.07-28.94 10.29-79.07 9.85-79.09q24.95 4.81 48.77 9.58c-.18 0-24.62 65.63-35.43 91-6.04 12.67-73.41 44.9-73.66 44.9z" fill="#607094"/><path class="cls-8" d="M41.57 537.04L0 468.66l31.99-19.45 10.2 16.78-.62 71.05z"/><path fill="#4a4a4a" d="M102.4 316.69h72.7v21.73h-72.7z"/><path class="cls-6" d="M179.49 178.22v.1h-.09l.09-.1z"/><path class="cls-11" d="M254.58 234.45c7.92-5.5 7.8-12.78 5.77-19-.29.12-61.74 21-70.43 9-16.77-24.13-30.22-51.06-42.86-63.62s-30.63 1.94-31.48 16.34 41.78 53.55 59.14 73.91c9.28 10.01 79.64-16.54 79.86-16.63z"/><path class="cls-1" d="M253 235c12.93-6.38 23.09-11.94 19.89-18.68s-14-2.41-27.07 3.61z"/><path class="cls-5" d="M179.09 73a3.47 3.47 0 1 1-3.78-3.13 3.48 3.48 0 0 1 3.78 3.13z"/><path class="cls-5" d="M181.78 64.26c-6.05-.72-11.84 3.16-14.59 9.29l2.31.37c2.4-4.74 7-7.68 11.87-7.15z"/><path class="cls-11" d="M179.86 26.86c-8-15.74-29.64-20.89-48.79-11.43s-28.71 30-21.72 46.24z"/><path class="cls-4" d="M226.27 10.27c1 2.13-1.22 5.26-4.87 7L119 66c-3.65 1.74-7.38 1.42-8.34-.7l-3.81-8.45c-.95-2.12 1.23-5.25 4.87-7l102.4-48.73c3.65-1.74 7.38-1.42 8.34.71z"/><path class="cls-12" transform="matrix(.85 -.52 .52 .85 -106.2 245.87)" d="M327.48 277.37h111.05v67.87H327.48z"/><path class="cls-12" transform="rotate(-31.49 436.377 378.549)" d="M367.66 335.21h137.58v86.72H367.66z"/><circle cx="324.25" cy="508.25" r="31.47" fill="#939ba3"/><circle cx="324.25" cy="508.25" r="22.62" fill="#6b7076"/><path d="M414.52 382.24l-2.17 6.35 11.65 6.88 3.24-.91 3.61 5.93-13 7.9-3.6-5.93 1.47-2-6.36-3.61-1.53 4.51 1.73 2.85 2.42-.41 3.61 5.93-13.26 8.06-3.6-5.92 2.49-2.59-8.43-13.84-3.44 1-3.63-6 13.18-8 3.63 6-1.39 1.92 3.22 5.31 2.86-9-2.38.38-3.63-6 13-7.93 3.63 6zm32-15.62l-7.3 4.44-2.51-2.37-5.42 3.3-.54 1.39 1 1.6 1.26.15 10.33-4.13 6.72.78 4.76 7.82-2.77 8-11.74 7.14-8.31-1.26-3-5 7.29-4.44 2.51 2.37 5.7-3.46.47-1.42-1.11-1.83-1.15-.21-10.3 4.13-7-1-4.53-7.45 2.6-7.67 11.93-7.26 8 1.19zm20.28-12.34l-2.51-2.37-5.77 3.51-.58 1.58 7.33 12.05 1.74.23 4.52-2.76.59-1.75-2.28-3.77-3.66 2.23-2.85-4.68 11.7-7.12 9.82 16.15-6.12 3.72-2.08-1.67-1.27 3.71-7.22 4.39-9.45-1.4-10.37-17 3-8.71 11.58-7.05 8 1.17 3.13 5.13z" fill="#fff"/><path class="cls-4" d="M441.35 324.72l-6.47 3.97-7.19 29.44 6.47-3.94 7.19-29.47zm12.92-7.91l-6.47 3.96-7.18 29.49 6.46-3.93 7.19-29.52zm6.47-3.96l-7.19 29.54 6.49-3.85 6.24-29.08-5.54 3.39zm-40.42 101.34l-6.47 3.96-7.19 29.44 6.47-3.93 7.19-29.47zm12.92-7.91l-6.47 3.96-7.18 29.49 6.46-3.93 7.19-29.52zm6.47-3.97l-7.19 29.55 6.49-3.86 6.24-29.08-5.54 3.39z"/></g></g></svg>