<svg xmlns="http://www.w3.org/2000/svg" viewBox="0 0 61.51 35.09"><g data-name="Слой 2"><path d="M30.1 35h3.67a3.16 3.16 0 0 0 1.68-.74A2.71 2.71 0 0 0 36 32.6s-.07-4.94 2.21-5.66 5.16 4.77 8.23 6.87a5.82 5.82 0 0 0 4.09 1.25l8.18-.06S63 34.68 61 31.3c-.17-.27-1.19-2.5-6.11-7.06-5.15-4.79-4.46-4 1.74-12.28 3.78-5 5.29-8.11 4.82-9.43s-3.23-.92-3.23-.92h-9.25a2.12 2.12 0 0 0-1.19.21 2.6 2.6 0 0 0-.82 1 53.14 53.14 0 0 1-3.42 7.21c-4.12 7-5.76 7.36-6.44 6.93-1.56-1-1.17-4.07-1.17-6.24 0-6.78 1-9.6-2-10.33A15.33 15.33 0 0 0 29.58 0c-3.3 0-6.09 0-7.67.78-1.06.52-1.87 1.67-1.37 1.73a4.2 4.2 0 0 1 2.73 1.37c.94 1.29.91 4.19.91 4.19s.55 8-1.27 9c-1.25.68-3-.71-6.63-7A58.84 58.84 0 0 1 13 3.15a2.85 2.85 0 0 0-.76-1 4 4 0 0 0-1.43-.57L2 1.61s-1.31 0-1.8.61 0 1.56 0 1.56S7.05 19.88 14.84 28C22 35.43 30.1 35 30.1 35z" fill="#e6e7e8" fill-rule="evenodd" data-name="—ÎÓÈ_1"/></g></svg>