<svg xmlns="http://www.w3.org/2000/svg" viewBox="0 0 39.49 24.9"><defs><style>.arrowLeft1{fill:#e83a4a;}.arrowLeft2{fill:#fff;}</style></defs><title>arrowLeft</title><g id="Слой_2" data-name="Слой 2"><g id="Слой_1-2" data-name="Слой 1"><path class="arrowLeft1" d="M7.25,24.9h14.6A7.36,7.36,0,0,0,27,22.8l10.4-10.4A7.26,7.26,0,0,0,32.25,0H17.65a7.36,7.36,0,0,0-5.1,2.1L2.15,12.5a7.26,7.26,0,0,0,5.1,12.4Z"/><path class="arrowLeft2" d="M25.65,18.3V6.7a.82.82,0,0,0-1.1-.7l-13.9,5.8a.8.8,0,0,0,0,1.5l13.9,5.8A.89.89,0,0,0,25.65,18.3Z"/></g></g></svg>