<svg xmlns="http://www.w3.org/2000/svg" viewBox="0 0 39.51 24.9"><defs><style>.arrowRight1{fill:#e83a4a;}.arrowRight2{fill:#fff;}</style></defs><title>arrowRight</title><g id="Слой_2" data-name="Слой 2"><g id="Слой_1-2" data-name="Слой 1"><path class="arrowRight1" d="M32.25,0H17.65a7.36,7.36,0,0,0-5.1,2.1L2.15,12.5a7.26,7.26,0,0,0,5.1,12.4h14.6A7.36,7.36,0,0,0,27,22.8l10.4-10.4A7.24,7.24,0,0,0,32.25,0Z"/><path class="arrowRight2" d="M13.85,6.6V18.2a.78.78,0,0,0,1.1.7l13.9-5.8a.8.8,0,0,0,0-1.5L15,5.8A.83.83,0,0,0,13.85,6.6Z"/></g></g></svg>