<svg xmlns="http://www.w3.org/2000/svg" viewBox="0 0 27.3 37.1"><defs><style>.cls-1{fill:#fff;}</style></defs><title>Ресурс 7</title><g id="Слой_2" data-name="Слой 2"><g id="Слой_1-2" data-name="Слой 1"><path class="cls-1" d="M19.4,14.5A1.37,1.37,0,0,0,18,15.9V31.1a1.4,1.4,0,0,0,2.8,0V15.9A1.43,1.43,0,0,0,19.4,14.5Z"/><path class="cls-1" d="M15.7,19.8a1.37,1.37,0,0,0-1.4,1.4v9.9a1.4,1.4,0,1,0,2.8,0V21.2A1.43,1.43,0,0,0,15.7,19.8Z"/><path class="cls-1" d="M11.9,25a1.37,1.37,0,0,0-1.4,1.4v4.7a1.4,1.4,0,0,0,2.8,0V26.4A1.43,1.43,0,0,0,11.9,25Z"/><path class="cls-1" d="M7.6,8.7A1.37,1.37,0,0,0,9,7.3a4.5,4.5,0,0,1,9,0,1.4,1.4,0,0,0,2.8,0,7.3,7.3,0,0,0-14.6,0A1.51,1.51,0,0,0,7.6,8.7Z"/><path class="cls-1" d="M26.1,11.2a1.35,1.35,0,0,0-1.4-1.3H2.6a1.42,1.42,0,0,0-1.4,1.3L0,35.7a1.16,1.16,0,0,0,.4,1,1.28,1.28,0,0,0,1,.4H25.9a1.78,1.78,0,0,0,1-.4,1.28,1.28,0,0,0,.4-1ZM3.9,12.7h.6l1,21.7H2.9ZM8.3,34.4l-1-21.7H23.4l1,21.7Z"/></g></g></svg>