<svg xmlns="http://www.w3.org/2000/svg" viewBox="0 0 37.85 37.8"><defs><style>.cls-1{fill:#e83a4a;}</style></defs><title>clouse2</title><g id="Слой_2" data-name="Слой 2"><g id="Слой_1-2" data-name="Слой 1"><path class="cls-1" d="M32.3,5.5A18.66,18.66,0,0,0,18.9,0,19.08,19.08,0,0,0,5.5,5.5,18.66,18.66,0,0,0,0,18.9,19.08,19.08,0,0,0,5.5,32.3a18.66,18.66,0,0,0,13.4,5.5A18.9,18.9,0,0,0,32.3,5.5Zm-2,24.8A16.12,16.12,0,0,1,18.9,35,16.29,16.29,0,0,1,7.5,30.3,16.12,16.12,0,0,1,2.8,18.9,16.29,16.29,0,0,1,7.5,7.5,16.12,16.12,0,0,1,18.9,2.8,16.29,16.29,0,0,1,30.3,7.5,16.11,16.11,0,0,1,30.3,30.3Z"/><polygon class="cls-1" points="19 15.9 12.5 9.4 9.6 9.4 9.6 12.3 16.1 18.8 9.6 25.3 9.6 28.2 12.5 28.2 19 21.7 25.6 28.2 28.5 28.2 28.5 25.3 22 18.8 28.5 12.3 28.5 9.4 25.6 9.4 19 15.9"/></g></g></svg>