<svg xmlns="http://www.w3.org/2000/svg" xmlns:xlink="http://www.w3.org/1999/xlink" viewBox="0 0 25.04 16.1">
    <defs>
        <style>
            .svg-dot-active {
                fill: #e83a4a;
                opacity: 1;
                isolation: isolate;
            }
            .svg-dot-active-stroke{
                stroke-dasharray: 1000;
                stroke-dashoffset: 1000;
                fill: none;
                stroke: #e83a4a;
                stroke-miterlimit: 10;
                animation: dash 5s infinite linear;
            }
            @keyframes dash {
                to {
                    stroke-dashoffset: 934;
                }
            }
        </style>
    </defs>
    <g>
        <path class="svg-dot-active" d="M18.41,2.3h-6.8a3.49,3.49,0,0,0-2.4,1L4.41,8.1a3.42,3.42,0,0,0,2.4,5.8h6.9a3.49,3.49,0,0,0,2.4-1l4.8-4.8a3.46,3.46,0,0,0-2.5-5.8Z"/>
        <path id="cool_shape" class="svg-dot-active-stroke" d="M20.11.5h-8.9a4.39,4.39,0,0,0-3.1,1.3L1.81,8.1a4.38,4.38,0,0,0,3.1,7.5h8.9a4.39,4.39,0,0,0,3.1-1.3L23.21,8A4.37,4.37,0,0,0,20.11.5Z"/>
    </g>
</svg>