<svg xmlns="http://www.w3.org/2000/svg" viewBox="0 0 54.2 54.2"><defs><style>.cls-1{fill:none;}.cls-2{fill:#8f9195;}.cls-3{fill:#fff;}</style></defs><title>icon5</title><g id="Слой_2" data-name="Слой 2"><g id="Слой_1-2" data-name="Слой 1"><path class="cls-1" d="M4.1,41.5a26.31,26.31,0,0,1-2.9-6.1A6.75,6.75,0,0,0,1,36.8,5.18,5.18,0,0,0,4.1,41.5Z"/><path class="cls-2" d="M17.9,20.1a1.4,1.4,0,1,1,0,2.8H.3A27.28,27.28,0,0,0,0,27a29.86,29.86,0,0,0,.4,4.3A7.87,7.87,0,0,1,14,35.2H28.6a7.93,7.93,0,0,1,15.6,0h.9V25.9l-5.8-3.1H22.8a1.56,1.56,0,0,1-1.3-.8l-3.2-6.1v-.1c0-.1-.1-.2-.1-.3s-.1-.2-.1-.3v-.3a.37.37,0,0,1,.1-.3.35.35,0,0,1,.1-.2.35.35,0,0,1,.1-.2l.2-.2a.1.1,0,0,0,.1-.1h.1c.1,0,.2-.1.3-.1s.2-.1.3-.1H33.7L33,12.5H4A26.56,26.56,0,0,0,.8,19.8H17.9Zm5.6,4.7h4.6a1.4,1.4,0,0,1,0,2.8H23.5a1.37,1.37,0,0,1-1.4-1.4A1.31,1.31,0,0,1,23.5,24.8Z"/><polygon class="cls-2" points="21.9 16.9 23.6 20.1 37 20.1 35.2 16.9 21.9 16.9"/><path class="cls-2" d="M6.3,36.8a.1.1,0,0,0-.2,0C6,36.9,6.3,36.9,6.3,36.8Z"/><path class="cls-2" d="M27.1,0a26.87,26.87,0,0,0-21,10H33.9a1.39,1.39,0,0,1,1.2.7l5.2,9.6,6.8,3.6a1.34,1.34,0,0,1,.8,1.3V36.8a1.37,1.37,0,0,1-1.4,1.4H44.2a7.93,7.93,0,0,1-15.6,0H14a8,8,0,0,1-7.5,6.5A27.1,27.1,0,1,0,27.1,0Z"/><path class="cls-2" d="M36.5,36.8a.1.1,0,0,0-.1-.1l-.1.1C36.2,36.9,36.5,36.9,36.5,36.8Z"/><path class="cls-2" d="M36.4,41.9a5.1,5.1,0,1,0-5.1-5.1A5,5,0,0,0,36.4,41.9Zm0-8.1a3,3,0,0,1,0,6,3,3,0,1,1,0-6Z"/><path class="cls-2" d="M6.2,41.9a5.1,5.1,0,1,0,0-10.2,5.16,5.16,0,0,0-4.9,3.7,26.31,26.31,0,0,0,2.9,6.1A5.92,5.92,0,0,0,6.2,41.9Zm0-8.1a3,3,0,0,1,0,6,3,3,0,0,1,0-6Z"/><path class="cls-3" d="M6.2,39.7a3,3,0,0,0,0-6,3,3,0,0,0,0,6Zm0-3a.1.1,0,0,1,.1.1c0,.1-.2.1-.2,0S6.1,36.7,6.2,36.7Z"/><path class="cls-3" d="M36.4,39.7a3,3,0,0,0,0-6,3,3,0,1,0,0,6Zm0-3a.1.1,0,0,1,.1.1c0,.1-.2.1-.2,0S36.3,36.7,36.4,36.7Z"/><path class="cls-3" d="M14,38.2H28.6a7.93,7.93,0,0,0,15.6,0h2.3a1.37,1.37,0,0,0,1.4-1.4V25.2a1.56,1.56,0,0,0-.8-1.3l-6.8-3.6-5.2-9.6a1.21,1.21,0,0,0-1.2-.7H6.1c-.7.9-1.4,1.9-2,2.8h29l.7,1.2H19.5a.37.37,0,0,0-.3.1.37.37,0,0,0-.3.1h-.1a.1.1,0,0,0-.1.1c-.1.1-.2.1-.2.2s-.1.1-.1.2a.35.35,0,0,1-.1.2.37.37,0,0,1-.1.3v.3a.37.37,0,0,0,.1.3.37.37,0,0,0,.1.3v.1l3.2,6.1a1.34,1.34,0,0,0,1.3.8H39.4l5.8,3.1v9.3h-.9a7.93,7.93,0,0,0-15.6,0H14.1A7.94,7.94,0,0,0,6.3,29,7.71,7.71,0,0,0,.5,31.6a25.85,25.85,0,0,0,.9,4,5.16,5.16,0,0,1,4.9-3.7,5.1,5.1,0,0,1,0,10.2,6.47,6.47,0,0,1-2-.4,24.28,24.28,0,0,0,2.4,3.2A8.5,8.5,0,0,0,14,38.2Zm9.6-18.1-1.7-3.2H35.3l1.8,3.2ZM36.4,31.7a5.1,5.1,0,1,1-5.1,5.1A5,5,0,0,1,36.4,31.7Z"/><path class="cls-3" d="M19.3,21.6a1.37,1.37,0,0,0-1.4-1.4H.9C.7,21.1.5,22.1.3,23H17.9A1.43,1.43,0,0,0,19.3,21.6Z"/><path class="cls-3" d="M23.5,27.6h4.6a1.4,1.4,0,0,0,0-2.8H23.5a1.37,1.37,0,0,0-1.4,1.4A1.31,1.31,0,0,0,23.5,27.6Z"/></g></g></svg>