<svg xmlns="http://www.w3.org/2000/svg" viewBox="0 0 54.2 54.2"><defs><style>.cls-1{fill:#8f9195;}.cls-2{fill:#fff;}</style></defs><title>icon1</title><g id="Слой_2" data-name="Слой 2"><g id="Слой_1-2" data-name="Слой 1"><circle class="cls-1" cx="27.1" cy="27.1" r="27.1"/><path class="cls-2" d="M31.3,25.2V14.9c2.6,1,4.4,2.7,4.4,4.7a1.5,1.5,0,0,0,3,0c0-3.6-3-6.6-7.4-7.9V4.6a1.5,1.5,0,1,0-3,0v6.6H25.2V4.6a1.5,1.5,0,0,0-3,0v6.9c-3.4.7-6.8,2.5-6.8,8.1s3.4,7.4,6.8,8.1V38c-2.3-1-3.8-2.6-3.8-4.5a1.5,1.5,0,0,0-3,0c0,3.5,2.7,6.4,6.8,7.7V49a1.5,1.5,0,0,0,3,0V41.9A10.87,10.87,0,0,0,27,42h1.3v7a1.5,1.5,0,0,0,3,0V41.8c4-.4,7.4-2,7.4-8.3S35.3,25.7,31.3,25.2Zm-4.2-11a6.15,6.15,0,0,1,1.3.1V25.1H25.3V14.3A9.72,9.72,0,0,1,27.1,14.2Zm-8.7,5.4c0-2.8,1-4.3,3.8-5v10C19.5,24,18.4,22.4,18.4,19.6ZM27.1,39a10.87,10.87,0,0,1-1.8-.1V28.1h3.1V39A5.63,5.63,0,0,0,27.1,39Zm4.2-.2V28.2c3.1.3,4.4,1.5,4.4,5.3S34.4,38.5,31.3,38.8Z"/></g></g></svg>