<svg xmlns="http://www.w3.org/2000/svg" viewBox="0 0 54.2 54.2"><defs><style>.cls-1{fill:#8f9195;}.cls-2{fill:#fff;}</style></defs><title>icon4</title><g id="Слой_2" data-name="Слой 2"><g id="Слой_1-2" data-name="Слой 1"><circle class="cls-1" cx="27.1" cy="27.1" r="27.1"/><path class="cls-2" d="M49.4,42.5c-2.4-4-8.8-7-17-7.9.8-.4,1.6-.9,2.4-1.4A10.31,10.31,0,0,0,44.9,22.9a17.8,17.8,0,0,0-35.6,0,1.4,1.4,0,0,0,2.8,0,15,15,0,0,1,30,0A7.68,7.68,0,0,1,38,29.6a12.5,12.5,0,0,0,1.9-6.7A12.8,12.8,0,1,0,21.8,34.6c-8.2.9-14.6,3.9-17,7.9.6.8,1.2,1.6,1.9,2.4C8,40.9,15.8,37,27.1,37s19.2,3.9,20.4,7.9C48.2,44.1,48.8,43.3,49.4,42.5ZM27.1,33a10.21,10.21,0,1,1,6.7-2.6,7.12,7.12,0,0,1-4.1-1.7,3,3,0,0,0,.2-1A2.9,2.9,0,1,0,27,30.6a1.27,1.27,0,0,0,.6-.1,8.8,8.8,0,0,0,2.9,1.8A9.37,9.37,0,0,1,27.1,33Z"/></g></g></svg>