<svg xmlns="http://www.w3.org/2000/svg" viewBox="0 0 54.2 54.2"><defs><style>.cls-2{fill:#fff}</style></defs><g id="Слой_2" data-name="Слой 2"><g id="Слой_1-2" data-name="Слой 1"><circle cx="27.1" cy="27.1" r="27.1" fill="#8f9195"/><path class="cls-2" d="M27.9 27.5a1.39 1.39 0 0 0-1.9 0 1.3 1.3 0 0 0 0 1.9l11 11a1.22 1.22 0 0 0 .9.4 1.09 1.09 0 0 0 .9-.4 1.39 1.39 0 0 0 0-1.9z"/><path class="cls-2" d="M37.2 30.1a11.5 11.5 0 0 0 6.9-3.3 11.72 11.72 0 0 0 3.2-10.4 1.17 1.17 0 0 0-.9-1 1.44 1.44 0 0 0-1.3.3L39 21.8l-4.9-1.3-1.3-4.9 6.1-6.1a1.21 1.21 0 0 0 .3-1.3 1.17 1.17 0 0 0-1-.9 11.45 11.45 0 0 0-10.4 3.2A11.61 11.61 0 0 0 24.9 22l-1.2 1.2-7.3-7.3a.1.1 0 0 1-.1-.1 1.36 1.36 0 0 0 0-1.5l-3.7-5.5a1.7 1.7 0 0 0-1-.6 1.5 1.5 0 0 0-1.1.4l-3.3 3.3a1.5 1.5 0 0 0-.4 1.1 1.33 1.33 0 0 0 .6 1l5.6 3.6a1.85 1.85 0 0 0 .7.2 1.42 1.42 0 0 0 .6-.2.1.1 0 0 0 .1.1l7.3 7.3L7.9 38.8a1.39 1.39 0 0 0 0 1.9l5.9 5.9a1.22 1.22 0 0 0 .9.4 1.09 1.09 0 0 0 .9-.4l10.5-10.5L35 45a5.78 5.78 0 0 0 4 1.7 5.61 5.61 0 0 0 4-1.7l.4-.4a5.61 5.61 0 0 0 1.7-4 5.44 5.44 0 0 0-1.7-4zM10.3 12.7l1-1 2 2.9zm19.2-.3a8.79 8.79 0 0 1 5.2-2.5l-4.5 4.5a1.21 1.21 0 0 0-.3 1.3l1.7 6.4a1.18 1.18 0 0 0 .9.9l6.4 1.7a1.52 1.52 0 0 0 1.3-.3l4.5-4.5a8.52 8.52 0 0 1-2.5 5.2 8.7 8.7 0 0 1-7.4 2.5h-.2L28 21a1.14 1.14 0 0 0-.8-.3 9 9 0 0 1 2.3-8.3zM14.8 43.8l-4-4 9.6-9.6 4 4zm26.9-1.1l-.4.4a3.14 3.14 0 0 1-4.4 0L22.3 28.5l4.7-4.7 14.6 14.6a3.1 3.1 0 0 1 .9 2.2 2.93 2.93 0 0 1-.8 2.1z"/></g></g></svg>