<svg xmlns="http://www.w3.org/2000/svg" viewBox="0 0 37.8 37.8"><defs><style>.cls-1{fill:#fff}</style></defs><g id="Слой_2" data-name="Слой 2"><g id="Слой_1-2" data-name="Слой 1"><path class="cls-1" d="M18.9 0a18.9 18.9 0 1 0 18.9 18.9A18.95 18.95 0 0 0 18.9 0zm0 35A16.1 16.1 0 1 1 35 18.9 16.09 16.09 0 0 1 18.9 35z"/><path class="cls-1" d="M16.8 27.1a2.57 2.57 0 0 0-1.8.7 2.84 2.84 0 0 0-.9 1.7 1.84 1.84 0 0 0 .5 1.6 1.86 1.86 0 0 0 1.6.7 2.57 2.57 0 0 0 1.8-.7 2.89 2.89 0 0 0 .9-1.6 2.05 2.05 0 0 0-.5-1.7 1.86 1.86 0 0 0-1.6-.7zm3.3-20.7a9.59 9.59 0 0 0-7.8 4.1v2.2h2.4c1.6-1.6 3.1-2.4 4.8-2.4a6.6 6.6 0 0 1 1.4.1 2.59 2.59 0 0 1 2.3 2.6 5.48 5.48 0 0 1-1.7 3.7 6.69 6.69 0 0 1-4.9 2l-1.3 7.2h3.4l.9-4.3a9.09 9.09 0 0 0 4.9-2.4A8.28 8.28 0 0 0 27 14a6.06 6.06 0 0 0-1.6-5.5 6.59 6.59 0 0 0-5.3-2.1z"/></g></g></svg>