<svg xmlns="http://www.w3.org/2000/svg" viewBox="0 0 37.8 37.8"><g><path d="M18.9,0A18.9,18.9,0,1,0,37.8,18.9,18.95,18.95,0,0,0,18.9,0Zm0,35A16.1,16.1,0,1,1,35,18.9,16.09,16.09,0,0,1,18.9,35Z"/><path d="M14.8,14H29.2a1.4,1.4,0,1,0,0-2.8H14.8a1.4,1.4,0,0,0,0,2.8Z"/><path d="M29.2,17.5H14.8a1.4,1.4,0,1,0,0,2.8H29.2a1.37,1.37,0,0,0,1.4-1.4A1.43,1.43,0,0,0,29.2,17.5Z"/><path d="M29.2,23.9H14.8a1.4,1.4,0,0,0,0,2.8H29.2a1.37,1.37,0,0,0,1.4-1.4A1.43,1.43,0,0,0,29.2,23.9Z"/><path d="M10.7,11.1H9.3a1.4,1.4,0,0,0,0,2.8h1.4a1.4,1.4,0,0,0,0-2.8Z"/><path d="M10.7,17.5H9.3a1.4,1.4,0,1,0,0,2.8h1.4a1.4,1.4,0,1,0,0-2.8Z"/><path d="M10.7,23.9H9.3a1.4,1.4,0,1,0,0,2.8h1.4a1.4,1.4,0,0,0,0-2.8Z"/></g></svg>