<svg xmlns="http://www.w3.org/2000/svg" viewBox="0 0 62.6 45.96"><defs><style>.cls-1{fill:#e83a4a;}</style></defs><g id="Слой_2" data-name="Слой 2"><g id="Слой_1-2" data-name="Слой 1"><path class="cls-1" d="M57,27H44.6A4.59,4.59,0,0,0,40,22.38H32.3V19H40a5.58,5.58,0,0,0,5.58-5.58V5.58A5.58,5.58,0,0,0,40,0H22.58A5.58,5.58,0,0,0,17,5.58v7.84A5.58,5.58,0,0,0,22.58,19H30.3v3.38H22.58A4.59,4.59,0,0,0,18,27H5.58A5.58,5.58,0,0,0,0,32.54v7.84A5.59,5.59,0,0,0,5.58,46H23a5.59,5.59,0,0,0,5.58-5.58V32.54A5.58,5.58,0,0,0,23,27H20a2.59,2.59,0,0,1,2.58-2.58H40A2.59,2.59,0,0,1,42.6,27h-3A5.58,5.58,0,0,0,34,32.54v7.84A5.59,5.59,0,0,0,39.58,46H57a5.59,5.59,0,0,0,5.58-5.58V32.54A5.58,5.58,0,0,0,57,27ZM21,13.42V5.58A1.58,1.58,0,0,1,22.58,4H40A1.58,1.58,0,0,1,41.6,5.58v7.84A1.58,1.58,0,0,1,40,15H22.58A1.58,1.58,0,0,1,21,13.42ZM23,31a1.58,1.58,0,0,1,1.58,1.58v7.84A1.58,1.58,0,0,1,23,42H5.58A1.58,1.58,0,0,1,4,40.38V32.54A1.58,1.58,0,0,1,5.58,31ZM58.6,40.38A1.58,1.58,0,0,1,57,42H39.58A1.58,1.58,0,0,1,38,40.38V32.54A1.58,1.58,0,0,1,39.58,31H57a1.58,1.58,0,0,1,1.58,1.58Z"/></g></g></svg>