<svg xmlns="http://www.w3.org/2000/svg" viewBox="0 0 118.1 96.7"><defs><style>.cls-1{fill:#fff;}.cls-2{fill:#e83a4a;}</style></defs><title>Ресурс 2</title><g id="Слой_2" data-name="Слой 2"><g id="Слой_1-2" data-name="Слой 1"><path class="cls-1" d="M35.4,38.5l-6.3,5.2,7.8,14.6,4,1.1v8.5H22.3V59.4l2.8-1.1-4.4-7.8-4.5,3.7v4.1L19,59.4v8.5H0V59.4l4.2-1.1V38.5L0,37.4V28.8H18.9v8.5l-2.7,1.1V46l8.7-7.6-2.7-1.1V28.8H40.8v8.5Z"/><path class="cls-1" d="M78.7,42.45H68.3l-1.1-4.1H59.4l-1.5,1.1v2.3l1.2,1L72.5,45l6.5,5.1v11.2l-8,6.6H54.2l-7.9-6.6v-7.1H56.7l1.1,4.1h8.1l1.4-1.2v-2.6l-1.1-.9-13.4-2.2-6.6-5.5V35.15l7.6-6.4H70.9l7.6,6.3v7.4Z"/><path class="cls-1" d="M107.7,42.5l-1.1-4.1H98.3l-1.6,1.3V56.9l1.7,1.3h6.5l1.7-1.5V51.3h-5.2V44.8h16.7V67.9h-8.8l-1.1-3.1-3.7,3.1H94.2l-9-7.5V36l8.6-7.2h16.6l7.6,6.3v7.3H107.7Z"/><polygon class="cls-2" points="84.2 11.1 79.6 6.5 64.4 21.6 73.7 21.6 84.2 11.1"/><polygon class="cls-2" points="109.2 4.6 104.6 0 82.9 21.6 92.2 21.6 109.2 4.6"/><polygon class="cls-2" points="105.9 17.1 101.4 21.6 110.5 21.6 105.9 17.1"/><polygon class="cls-2" points="37.5 85.5 42.2 90.2 57.3 75 48 75 37.5 85.5"/><polygon class="cls-2" points="12.5 92.1 17.1 96.7 38.8 75 29.5 75 12.5 92.1"/><polygon class="cls-2" points="15.8 79.6 20.3 75 11.3 75 15.8 79.6"/></g></g></svg>