<svg xmlns="http://www.w3.org/2000/svg" viewBox="0 0 31.1 19"><defs><style>.cls-1{fill:#fff;}</style></defs><title>Ресурс 4</title><g id="Слой_2" data-name="Слой 2"><g id="Слой_1-2" data-name="Слой 1"><path class="cls-1" d="M1.4,2.8H29.7a1.37,1.37,0,0,0,1.4-1.4A1.37,1.37,0,0,0,29.7,0H1.4A1.37,1.37,0,0,0,0,1.4,1.37,1.37,0,0,0,1.4,2.8Z"/><path class="cls-1" d="M29.7,8.1H1.4a1.4,1.4,0,1,0,0,2.8H29.7a1.37,1.37,0,0,0,1.4-1.4A1.43,1.43,0,0,0,29.7,8.1Z"/><path class="cls-1" d="M29.7,16.2H1.4a1.4,1.4,0,0,0,0,2.8H29.7a1.37,1.37,0,0,0,1.4-1.4A1.43,1.43,0,0,0,29.7,16.2Z"/></g></g></svg>