<svg xmlns="http://www.w3.org/2000/svg" viewBox="0 0 40.53 39.85"><defs><style>.cls-1{fill:#1d1d1b}</style></defs><g id="Слой_2" data-name="Слой 2"><g id="Слой_1-2" data-name="Слой 1"><path class="cls-1" d="M21 20.33a1.3 1.3 0 0 0-1.86 0 1.32 1.32 0 0 0 0 1.86l11 11A1.31 1.31 0 1 0 32 31.34z"/><path class="cls-1" d="M30.3 23a11.56 11.56 0 0 0 10-13.69 1.31 1.31 0 0 0-2.22-.68L32 14.73l-4.91-1.32-1.31-4.9 6.07-6.07a1.31 1.31 0 0 0-.64-2.22 11.53 11.53 0 0 0-13.28 14.63L16.75 16l-7.3-7.3-.1-.07a1.28 1.28 0 0 0 0-1.47L5.72 1.73a1.35 1.35 0 0 0-1-.57 1.28 1.28 0 0 0-1 .38L.39 4.85A1.26 1.26 0 0 0 0 5.92a1.31 1.31 0 0 0 .6 1l5.57 3.55a1.27 1.27 0 0 0 .7.21 1.32 1.32 0 0 0 .63-.19s0 .09.08.12l7.3 7.31-13.81 13.8a1.3 1.3 0 0 0 0 1.86L7 39.47a1.33 1.33 0 0 0 1.86 0l10.5-10.54 8.86 8.86a5.72 5.72 0 0 0 8.08 0l.35-.35a5.71 5.71 0 0 0 0-8.07zM3.4 5.55l1-1 2 2.93zm19.28-.31A8.84 8.84 0 0 1 27.9 2.7l-4.49 4.49a1.32 1.32 0 0 0-.34 1.27l1.71 6.37a1.31 1.31 0 0 0 .93.92l6.37 1.71a1.28 1.28 0 0 0 1.27-.34l4.49-4.49a8.93 8.93 0 0 1-9.91 7.77 1.77 1.77 0 0 0-.23 0l-6.59-6.58a1.27 1.27 0 0 0-.82-.35 8.94 8.94 0 0 1 2.39-8.23zM7.89 36.68l-4-4L13.47 23l4 4zm26.9-1.1l-.35.35a3.15 3.15 0 0 1-4.36 0l-14.6-14.6 4.7-4.71 14.61 14.61a3.08 3.08 0 0 1 0 4.35z"/></g></g></svg>