<svg xmlns="http://www.w3.org/2000/svg" viewBox="0 0 40.55 28.58"><defs><style>.cls-1{fill:#010101;}</style></defs><title>success_cart</title><g id="Слой_2" data-name="Слой 2"><g id="Слой_1-2" data-name="Слой 1"><path class="cls-1" d="M17,21.85a3.37,3.37,0,1,0,3.37,3.37A3.37,3.37,0,0,0,17,21.85Zm0,3.94a.57.57,0,0,1-.58-.57.58.58,0,1,1,1.16,0A.57.57,0,0,1,17,25.79Z"/><path class="cls-1" d="M35.45,21.85a3.37,3.37,0,1,0,3.37,3.37A3.37,3.37,0,0,0,35.45,21.85Zm0,3.94a.57.57,0,0,1-.57-.57.58.58,0,1,1,1.15,0A.57.57,0,0,1,35.45,25.79Z"/><path class="cls-1" d="M39.15,4.87H13.54l-.71-3.74A1.41,1.41,0,0,0,11.45,0H1.4a1.4,1.4,0,1,0,0,2.79h8.9l2.84,14.85a1.39,1.39,0,0,0,1.37,1.13H35.45a1.4,1.4,0,1,0,0-2.79H15.66l-.53-2.76H37.72a1.4,1.4,0,1,0,0-2.79H14.6l-.53-2.77H39.15a1.4,1.4,0,1,0,0-2.79Z"/></g></g></svg>