<svg xmlns="http://www.w3.org/2000/svg" viewBox="0 0 49.86 29.85"><defs><style>.cls-1{fill:#010101;}</style></defs><title>succsess_auto</title><g id="Слой_2" data-name="Слой 2"><g id="Слой_1-2" data-name="Слой 1"><path class="cls-1" d="M45.45,24.25c6.26,0,4.77-9.37,2.17-12.41-1.75-2-3.76-2.31-5-4.2-1.45-2.2-2.56-4.71-3.83-7A1.26,1.26,0,0,0,37.7,0H1.26A1.25,1.25,0,0,0,.06,1.58C1.52,6,2.91,9.42,2.91,13.9c0,4.08-.44,10.35,5.45,10.35a1.25,1.25,0,0,0,0-2.5c-4.61,0-2.59-9.56-3-12-.47-2.95-2-6-2.92-8.87L1.26,2.5H31.44A51.56,51.56,0,0,0,37,2.5c1.24-.13,0,0-.23-.36.64,1,1.15,2.12,1.72,3.16.91,1.66,1.71,4.12,3.1,5.45,1,1,2.42,1.32,3.51,2.4,1.43,1.42,2.35,2.46,2.19,4.87-.08,1.21.49,3.73-1.84,3.73a1.25,1.25,0,0,0,0,2.5Z"/><path class="cls-1" d="M19.57,24.25H34.24a1.25,1.25,0,0,0,0-2.5H19.57a1.25,1.25,0,0,0,0,2.5Z"/><path class="cls-1" d="M9.61,23c.3-5.58,8.71-5.63,8.71,0s-8.41,5.58-8.71,0c-.09-1.6-2.59-1.61-2.5,0A7,7,0,0,0,14,29.85a6.85,6.85,0,0,0,.3-13.69A7,7,0,0,0,7.11,23C7,24.6,9.52,24.6,9.61,23Z"/><path class="cls-1" d="M35.49,23c.3-5.58,8.71-5.63,8.71,0s-8.41,5.58-8.71,0c-.09-1.6-2.59-1.61-2.5,0a6.86,6.86,0,1,0,7.16-6.84A7,7,0,0,0,33,23C32.9,24.6,35.4,24.6,35.49,23Z"/><path class="cls-1" d="M39.15,3.49c-2.32,0-4.71-.17-7,0-3.77.28-3.68,3.57-3.48,6.46a1.26,1.26,0,0,0,1.25,1.25H42.35a1.25,1.25,0,0,0,0-2.5H29.89L31.14,10A9.54,9.54,0,0,1,31,7.41C31.38,5.69,32.51,6,33.71,6h5.44a1.25,1.25,0,0,0,0-2.5Z"/><path class="cls-1" d="M24,8.7H7.87a1.25,1.25,0,0,0,0,2.5H24a1.25,1.25,0,0,0,0-2.5Z"/><path class="cls-1" d="M30,15.18h3.34a1.25,1.25,0,0,0,0-2.5H30a1.25,1.25,0,0,0,0,2.5Z"/><path class="cls-1" d="M46.72,17.72H48a1.25,1.25,0,0,0,0-2.5H46.72a1.25,1.25,0,0,0,0,2.5Z"/><path class="cls-1" d="M4.45,15.83v1.29a1.25,1.25,0,0,0,2.5,0V15.83a1.25,1.25,0,0,0-2.5,0Z"/><circle class="cls-1" cx="13.97" cy="23" r="1.75"/><circle class="cls-1" cx="39.84" cy="23" r="1.75"/></g></g></svg>