<svg xmlns="http://www.w3.org/2000/svg" viewBox="0 0 517.76 539.71"><defs><style>.cls-1{fill:#f7c18a;}.cls-2{fill:#8e2d3d;}.cls-3{fill:#573a1e;}.cls-4{fill:#e73949;}.cls-5{fill:#473523;}.cls-6{fill:#c1272d;}.cls-7{fill:#434e67;}.cls-8{fill:#7f858a;}.cls-9{fill:#607094;}.cls-10{fill:#4a4a4a;}.cls-11{fill:#ba3142;}.cls-12{fill:#af8256;}.cls-13{fill:#939ba3;}.cls-14{fill:#6b7076;}.cls-15{fill:#fff;}</style></defs><title>succsess_man</title><g id="Слой_2" data-name="Слой 2"><g id="Layer_1" data-name="Layer 1"><path class="cls-1" d="M256.56,277.49c14.22,2.4,25.72,3.84,27.06-3.5s-9.91-10.13-24.06-12.92Z"/><path class="cls-2" d="M137.3,220.66l19.11,41.71c34.32,9.49,68.6,14.28,101.53,17.13,3.76-8.05,4.89-9.63,8.64-16.9Q202.59,252,137.3,220.66Z"/><polygon class="cls-1" points="184.27 54.79 184.1 72.74 190.22 88.88 179.59 95.04 180.11 113.59 152.44 113.34 152.04 156.09 124.36 155.84 125.3 54.23 184.27 54.79"/><path class="cls-3" d="M127.66,87.19c.06-7.15,6.4-12.91,14.22-13l0,3.71,0,4.26h10.44l.12-12.5,30.1-12.36,8.07-4.09V30.26l-69.3,6.66-8.19-.07-.7,76.69,17.39.16,2.55-16.76A12.58,12.58,0,0,1,127.66,87.19Z"/><path class="cls-4" d="M171.59,336.38H102.4s-12.27-171,0-188.38,56-12,65.91.34S171.59,336.38,171.59,336.38Z"/><rect class="cls-5" x="317.84" y="200.99" width="9.66" height="292.16" transform="translate(-133.4 218.32) rotate(-31.32)"/><rect class="cls-5" x="318.64" y="474.24" width="77.83" height="9.66" transform="translate(-221.63 331.07) rotate(-38.93)"/><rect class="cls-5" x="322.6" y="353.63" width="9.66" height="150.71" transform="translate(-9.75 7.62) rotate(-1.31)"/><rect class="cls-5" x="384.44" y="435.17" width="127.27" height="9.66" transform="translate(-163.71 298.25) rotate(-31.43)"/><polygon class="cls-6" points="179.49 178.21 179.49 178.22 179.48 178.21 179.49 178.21"/><path class="cls-7" d="M221.25,496.17c-8.2,4.18-9.8,5.4-17.18,9.52-12.34-53.94-36.48-108.14-72.41-162.12q17.88-6.1,37-12.23C200,385.38,213.44,442.43,221.25,496.17Z"/><polygon class="cls-8" points="288.45 519.27 210.42 537.04 202.1 500.53 221.25 496.17 288.45 519.27"/><path class="cls-9" d="M42.19,466c-9.5-3-19.52-1-29.77-4.11.32,0,14.15-8.31,33.24-20.28,18.44-12,42.13-27.58,47-42,9.07-28.94,10.29-79.07,9.85-79.09q24.95,4.81,48.77,9.58c-.18,0-24.62,65.63-35.43,91C109.81,433.77,42.44,466,42.19,466Z"/><polygon class="cls-8" points="41.57 537.04 0 468.66 31.99 449.21 42.19 465.99 41.57 537.04"/><rect class="cls-10" x="102.4" y="316.69" width="72.7" height="21.73"/><polygon class="cls-6" points="179.49 178.22 179.49 178.32 179.4 178.32 179.49 178.22"/><path class="cls-11" d="M254.58,234.45c7.92-5.5,7.8-12.78,5.77-19-.29.12-61.74,21-70.43,9-16.77-24.13-30.22-51.06-42.86-63.62s-30.63,1.94-31.48,16.34,41.78,53.55,59.14,73.91C184,261.09,254.36,234.54,254.58,234.45Z"/><path class="cls-1" d="M253,235c12.93-6.38,23.09-11.94,19.89-18.68s-14-2.41-27.07,3.61Z"/><path class="cls-5" d="M179.09,73a3.47,3.47,0,1,1-3.78-3.13A3.48,3.48,0,0,1,179.09,73Z"/><path class="cls-5" d="M181.78,64.26c-6.05-.72-11.84,3.16-14.59,9.29l2.31.37c2.4-4.74,7-7.68,11.87-7.15Z"/><path class="cls-11" d="M179.86,26.86c-8-15.74-29.64-20.89-48.79-11.43s-28.71,30-21.72,46.24Z"/><path class="cls-4" d="M226.27,10.27c1,2.13-1.22,5.26-4.87,7L119,66c-3.65,1.74-7.38,1.42-8.34-.7l-3.81-8.45c-.95-2.12,1.23-5.25,4.87-7L214.12,1.12c3.65-1.74,7.38-1.42,8.34.71Z"/><rect class="cls-12" x="327.48" y="277.37" width="111.05" height="67.87" transform="matrix(0.85, -0.52, 0.52, 0.85, -106.2, 245.87)"/><rect class="cls-12" x="367.66" y="335.21" width="137.58" height="86.72" transform="translate(-133.47 283.69) rotate(-31.49)"/><circle class="cls-13" cx="324.25" cy="508.25" r="31.47"/><circle class="cls-14" cx="324.25" cy="508.25" r="22.62"/><path class="cls-15" d="M414.52,382.24l-2.17,6.35L424,395.47l3.24-.91,3.61,5.93-13,7.9-3.6-5.93,1.47-2-6.36-3.61-1.53,4.51,1.73,2.85,2.42-.41,3.61,5.93-13.26,8.06-3.6-5.92,2.49-2.59-8.43-13.84-3.44,1-3.63-6,13.18-8,3.63,6-1.39,1.92,3.22,5.31,2.86-9-2.38.38-3.63-6,13-7.93,3.63,6Z"/><path class="cls-15" d="M446.52,366.62l-7.3,4.44-2.51-2.37-5.42,3.3-.54,1.39,1,1.6,1.26.15L443.34,371l6.72.78,4.76,7.82-2.77,8-11.74,7.14L432,393.48l-3-5,7.29-4.44,2.51,2.37,5.7-3.46.47-1.42-1.11-1.83-1.15-.21-10.3,4.13-7-1-4.53-7.45,2.6-7.67,11.93-7.26,8,1.19Z"/><path class="cls-15" d="M466.8,354.28l-2.51-2.37-5.77,3.51-.58,1.58,7.33,12.05,1.74.23,4.52-2.76.59-1.75L469.84,361l-3.66,2.23-2.85-4.68,11.7-7.12,9.82,16.15-6.12,3.72-2.08-1.67-1.27,3.71-7.22,4.39-9.45-1.4-10.37-17,3-8.71,11.58-7.05,8,1.17,3.13,5.13Z"/><polygon class="cls-4" points="441.35 324.72 434.88 328.69 427.69 358.13 434.16 354.19 441.35 324.72"/><polygon class="cls-4" points="454.27 316.81 447.8 320.77 440.62 350.26 447.08 346.33 454.27 316.81"/><polygon class="cls-4" points="460.74 312.85 453.55 342.39 460.04 338.54 466.28 309.46 460.74 312.85"/><polygon class="cls-4" points="420.32 414.19 413.85 418.15 406.66 447.59 413.13 443.66 420.32 414.19"/><polygon class="cls-4" points="433.24 406.28 426.77 410.24 419.59 439.73 426.05 435.8 433.24 406.28"/><polygon class="cls-4" points="439.71 402.31 432.52 431.86 439.01 428 445.25 398.92 439.71 402.31"/></g></g></svg>