<svg xmlns="http://www.w3.org/2000/svg" viewBox="0 0 22.8 33.2"><defs><style>.cls-1{fill:#e83b4b}</style></defs><g id="Слой_2" data-name="Слой 2"><g id="Слой_1-2" data-name="Слой 1"><path class="cls-1" d="M11.3 0A11.35 11.35 0 0 0 0 11.3C0 17 9.1 31 10.2 32.6a1.5 1.5 0 0 0 2.4 0c1-1.6 10.2-15.5 10.2-21.3A11.59 11.59 0 0 0 11.3 0zm0 29.2c-3.1-5-8.5-14.3-8.5-17.9a8.5 8.5 0 0 1 17 0c0 3.6-5.3 12.9-8.5 17.9z"/><path class="cls-1" d="M11.3 7.1a4.8 4.8 0 1 0 4.8 4.8 4.74 4.74 0 0 0-4.8-4.8zm0 6.9a2.1 2.1 0 1 1 2.1-2.1 2.11 2.11 0 0 1-2.1 2.1z"/></g></g></svg>