<svg xmlns="http://www.w3.org/2000/svg" viewBox="0 0 37.85 37.8"><defs><style>.cls-1{fill:#e83a4a}</style></defs><g id="Слой_2" data-name="Слой 2"><g id="Слой_1-2" data-name="Слой 1"><path class="cls-1" d="M32.3 5.5A18.66 18.66 0 0 0 18.9 0 19.08 19.08 0 0 0 5.5 5.5 18.66 18.66 0 0 0 0 18.9a19.08 19.08 0 0 0 5.5 13.4 18.66 18.66 0 0 0 13.4 5.5A18.9 18.9 0 0 0 32.3 5.5zm-2 24.8A16.12 16.12 0 0 1 18.9 35a16.29 16.29 0 0 1-11.4-4.7 16.12 16.12 0 0 1-4.7-11.4A16.29 16.29 0 0 1 7.5 7.5a16.12 16.12 0 0 1 11.4-4.7 16.29 16.29 0 0 1 11.4 4.7 16.11 16.11 0 0 1 0 22.8z"/><path class="cls-1" d="M19 15.9l-6.5-6.5H9.6v2.9l6.5 6.5-6.5 6.5v2.9h2.9l6.5-6.5 6.6 6.5h2.9v-2.9L22 18.8l6.5-6.5V9.4h-2.9L19 15.9z"/></g></g></svg>