<svg width="22" height="22" viewBox="0 0 22 22" fill="none" xmlns="http://www.w3.org/2000/svg">
<g clip-path="url(#clip0)">
<path d="M13.7955 4.58332C14.6908 4.75801 15.5137 5.19589 16.1587 5.84093C16.8038 6.48597 17.2416 7.30882 17.4163 8.20416M13.7955 0.916656C15.6557 1.12331 17.3903 1.95632 18.7145 3.27891C20.0388 4.60151 20.874 6.33508 21.083 8.19499M20.1663 15.51V18.26C20.1674 18.5153 20.1151 18.768 20.0128 19.0019C19.9105 19.2358 19.7605 19.4458 19.5724 19.6184C19.3843 19.791 19.1622 19.9223 18.9203 20.0041C18.6785 20.0859 18.4222 20.1163 18.168 20.0933C15.3473 19.7868 12.6377 18.823 10.2572 17.2792C8.04233 15.8718 6.16455 13.994 4.75715 11.7792C3.20797 9.38776 2.24388 6.66507 1.94299 3.83166C1.92008 3.57817 1.95021 3.32269 2.03145 3.08148C2.11269 2.84027 2.24326 2.61862 2.41486 2.43064C2.58645 2.24266 2.79531 2.09247 3.02813 1.98963C3.26095 1.8868 3.51263 1.83356 3.76715 1.83332H6.51715C6.96202 1.82894 7.3933 1.98648 7.7306 2.27656C8.06791 2.56664 8.28823 2.96948 8.35049 3.40999C8.46656 4.29005 8.68182 5.15416 8.99215 5.98582C9.11549 6.31392 9.14218 6.6705 9.06907 7.0133C8.99596 7.3561 8.82611 7.67076 8.57965 7.91999L7.41549 9.08416C8.72041 11.3791 10.6206 13.2792 12.9155 14.5842L14.0797 13.42C14.3289 13.1735 14.6435 13.0037 14.9863 12.9306C15.3291 12.8575 15.6857 12.8842 16.0138 13.0075C16.8455 13.3178 17.7096 13.5331 18.5897 13.6492C19.0349 13.712 19.4416 13.9363 19.7323 14.2794C20.023 14.6225 20.1775 15.0604 20.1663 15.51Z" stroke="#E83A4A" stroke-width="2" stroke-linecap="round" stroke-linejoin="round"/>
</g>
<defs>
<clipPath id="clip0">
<rect width="22" height="22" fill="white"/>
</clipPath>
</defs>
</svg>

