<svg width="24" height="17" viewBox="0 0 24 17" fill="none" xmlns="http://www.w3.org/2000/svg">
<path d="M20.5938 0.85H3.40625C1.99662 0.85 0.85 1.99662 0.85 3.40625V13.7188C0.85 15.1284 1.99662 16.275 3.40625 16.275H20.5938C22.0034 16.275 23.15 15.1284 23.15 13.7188V3.40625C23.15 1.99662 22.0034 0.85 20.5938 0.85ZM3.40625 2.525H20.5938C21.0795 2.525 21.475 2.92049 21.475 3.40625V4.63125H2.525V3.40625C2.525 2.92049 2.92049 2.525 3.40625 2.525ZM20.5938 14.6H3.40625C2.92049 14.6 2.525 14.2045 2.525 13.7188V6.30625H21.475V13.7188C21.475 14.2045 21.0795 14.6 20.5938 14.6Z" fill="#E83B4B" stroke="#E83A4A" stroke-width="0.3"/>
<path d="M5.8125 12.6875H5.125C4.74533 12.6875 4.4375 12.3797 4.4375 12V11.3125C4.4375 10.9328 4.74533 10.625 5.125 10.625H5.8125C6.19217 10.625 6.5 10.9328 6.5 11.3125V12C6.5 12.3797 6.19217 12.6875 5.8125 12.6875Z" fill="#E83B4B"/>
</svg>

