<svg xmlns="http://www.w3.org/2000/svg" viewBox="0 0 118.1 96.7"><g data-name="Слой 2"><g data-name="Слой 1"><path d="M35.4 38.5l-6.3 5.2 7.8 14.6 4 1.1v8.5H22.3v-8.5l2.8-1.1-4.4-7.8-4.5 3.7v4.1l2.8 1.1v8.5H0v-8.5l4.2-1.1V38.5L0 37.4v-8.6h18.9v8.5l-2.7 1.1V46l8.7-7.6-2.7-1.1v-8.5h18.6v8.5zm43.3 3.95H68.3l-1.1-4.1h-7.8l-1.5 1.1v2.3l1.2 1L72.5 45l6.5 5.1v11.2l-8 6.6H54.2l-7.9-6.6v-7.1h10.4l1.1 4.1h8.1l1.4-1.2v-2.6l-1.1-.9-13.4-2.2-6.6-5.5V35.15l7.6-6.4h17.1l7.6 6.3v7.4zm29 .05l-1.1-4.1h-8.3l-1.6 1.3v17.2l1.7 1.3h6.5l1.7-1.5v-5.4h-5.2v-6.5h16.7v23.1h-8.8l-1.1-3.1-3.7 3.1H94.2l-9-7.5V36l8.6-7.2h16.6l7.6 6.3v7.3h-10.3z" fill="#fff"/><path d="M84.2 11.1l-4.6-4.6-15.2 15.1h9.3l10.5-10.5zm25-6.5L104.6 0 82.9 21.6h9.3l17-17zm-3.3 12.5l-4.5 4.5h9.1l-4.6-4.5zM37.5 85.5l4.7 4.7L57.3 75H48L37.5 85.5zm-25 6.6l4.6 4.6L38.8 75h-9.3l-17 17.1zm3.3-12.5l4.5-4.6h-9l4.5 4.6z" fill="#e83a4a"/></g></g></svg>