<svg xmlns="http://www.w3.org/2000/svg" viewBox="0 0 60.8 60.73"><g data-name="Слой 2"><path d="M28.45.06a30.4 30.4 0 0 0-.18 60.67 2 2 0 0 0 .29-4A26.42 26.42 0 1 1 56.83 30.4c0 6-3.78 15-6.85 16.26a1.17 1.17 0 0 1-.86.06c.27-.31.54-.63.78-1a4.33 4.33 0 0 0 .8-1.72 2.9 2.9 0 0 0-.81-2.63 24.31 24.31 0 0 0-2.35-2.25 34.64 34.64 0 0 0-5.67-3.76 10.08 10.08 0 0 0-2.15-.91 3 3 0 0 0-3.23 1 4.64 4.64 0 0 0-.57.85c-.29.59-.57 1.18-.85 1.78l-.35.73a4 4 0 0 1-.66-.31c-.69-.42-1.37-.88-2.05-1.34l-.26-.16a24.21 24.21 0 0 1-5-4.42 37.38 37.38 0 0 1-3.12-4.24 10 10 0 0 1-.53-1c0-.1-.08-.19-.13-.29l.86-.41.6-.29a11.55 11.55 0 0 0 1.47-.78 3 3 0 0 0 1.35-3.78 15.23 15.23 0 0 0-1.38-2.87 32.13 32.13 0 0 0-4.19-5.83 10.17 10.17 0 0 0-1.68-1.5 2.93 2.93 0 0 0-3-.28 7 7 0 0 0-1.64 1.07 18 18 0 0 0-3.29 3.9 13.14 13.14 0 0 0-1.78 4.08c-.06.25-.1.5-.14.76l-.06.36v1.1l.06.34c0 .27.08.55.14.81a17.07 17.07 0 0 0 1.66 4.38 50.21 50.21 0 0 0 6 8.67 62.33 62.33 0 0 0 5.45 5.61 52.76 52.76 0 0 0 8.1 6.2 24.58 24.58 0 0 0 5.39 2.58 11 11 0 0 0 2.33.52h1.14a10.23 10.23 0 0 0 3.19-.89A13.93 13.93 0 0 0 46 49.38a5.17 5.17 0 0 0 5.55 1c5.4-2.24 9.3-13.46 9.3-19.94A30.43 30.43 0 0 0 28.45.06zM47.12 43.8a6.91 6.91 0 0 1-.8 1 15.67 15.67 0 0 1-4 2.83 7.28 7.28 0 0 1-2.17.71 4.7 4.7 0 0 1-1.53-.14 15.4 15.4 0 0 1-4-1.62A45.5 45.5 0 0 1 29 42.76a53.1 53.1 0 0 1-6-5.42 49 49 0 0 1-7.32-9.44 20.55 20.55 0 0 1-1.91-4.21 9.64 9.64 0 0 1-.26-1.25v-.34a5.08 5.08 0 0 1 .45-2A13.32 13.32 0 0 1 17 15.48a10.61 10.61 0 0 1 1.2-1h.06a14.09 14.09 0 0 1 2.1 2.33 32 32 0 0 1 2.91 4.4c.22.42.41.86.6 1.29l.09.21-2.3 1.14a8.68 8.68 0 0 0-.85.46 2.68 2.68 0 0 0-1.25 3.32 8.6 8.6 0 0 0 .74 1.75 31.67 31.67 0 0 0 12 12.05 8.35 8.35 0 0 0 2.24.87 2.45 2.45 0 0 0 2-.46 3.69 3.69 0 0 0 1.08-1.33c.11-.21.22-.44.32-.66l.19-.4c.27-.55.54-1.09.85-1.69a11.65 11.65 0 0 1 2.21 1.09 31.05 31.05 0 0 1 5 3.58 11.36 11.36 0 0 1 .84.86l.23.25z" fill="#adc64c" data-name="Слой 1"/></g></svg>