<svg xmlns="http://www.w3.org/2000/svg" viewBox="0 0 40.55 28.58"><g data-name="Слой 2"><path d="M17 21.85a3.37 3.37 0 1 0 3.37 3.37A3.37 3.37 0 0 0 17 21.85zm0 3.94a.57.57 0 0 1-.58-.57.58.58 0 1 1 1.16 0 .57.57 0 0 1-.58.57zm18.45-3.94a3.37 3.37 0 1 0 3.37 3.37 3.37 3.37 0 0 0-3.37-3.37zm0 3.94a.57.57 0 0 1-.57-.57.58.58 0 1 1 1.15 0 .57.57 0 0 1-.58.57zm3.7-20.92H13.54l-.71-3.74A1.41 1.41 0 0 0 11.45 0H1.4a1.4 1.4 0 1 0 0 2.79h8.9l2.84 14.85a1.39 1.39 0 0 0 1.37 1.13h20.94a1.4 1.4 0 1 0 0-2.79H15.66l-.53-2.76h22.59a1.4 1.4 0 1 0 0-2.79H14.6l-.53-2.77h25.08a1.4 1.4 0 1 0 0-2.79z" fill="#010101" data-name="Слой 1"/></g></svg>